<?xml version="1.0" ?><svg style="enable-background:new 0 0 512 512;" version="1.1" viewBox="0 0 512 512" xml:space="preserve" xmlns="http://www.w3.org/2000/svg" xmlns:xlink="http://www.w3.org/1999/xlink"><style type="text/css">
	.st0{fill:#C8C6CC;}
	.st1{fill:#78CBED;}
	.st2{fill:#34B6E2;}
	.st3{fill:#FFFFFF;}
	.st4{fill:#F6D6C5;}
	.st5{fill:#C76D33;}
	.st6{fill:#DF8A57;}
	.st7{fill:#FFD6BC;}
	.st8{fill:#F85647;}
	.st9{fill:#FFB88C;}
	.st10{fill:#FF97C1;}
	.st11{fill:#00C755;}
	.st12{fill:#55D47B;}
	.st13{fill:#FF9A5C;}
	.st14{fill:#F54432;}
	.st15{fill:#948EA3;}
	.st16{fill:#FD7A6E;}
	.st17{fill:#77728D;}
	.st18{fill:none;}
	.st19{fill:#FF7E27;}
	.st20{fill:#EAAA83;}
	.st21{fill:#E83826;}
</style><g id="Layer_1"/><g id="Layer_2"/><g id="Layer_3"/><g id="Layer_4"/><g id="Layer_5"/><g id="Layer_6"/><g id="Layer_7"/><g id="Layer_8"/><g id="Layer_9"/><g id="Layer_10"/><g id="Layer_11"/><g id="Layer_12"/><g id="Layer_13"/><g id="Layer_14"/><g id="Layer_15"/><g id="Layer_16"/><g id="Layer_17"/><g id="Layer_18"/><g id="Layer_19"/><g id="Layer_20"/><g id="Layer_21"/><g id="Layer_22"/><g id="Layer_23"/><g id="Layer_24"/><g id="Layer_25"/><g id="Layer_26"/><g id="Layer_27"/><g id="Layer_28"/><g id="Layer_29"/><g id="Layer_30"/><g id="Layer_31"/><g id="Layer_32"/><g id="Layer_33"/><g id="Layer_34"/><g id="Layer_35"/><g id="Layer_36"/><g id="Layer_37"/><g id="Layer_38"/><g id="Layer_39"/><g id="Layer_40"/><g id="Layer_41"/><g id="Layer_42"/><g id="Layer_43"/><g id="Layer_44"/><g id="Layer_45"/><g id="Layer_46"/><g id="Layer_47"/><g id="Layer_48"/><g id="Layer_49"/><g id="Layer_50"><g><g><path class="st4" d="M148.099,97.493l27.978,27.546l17.462-18.213L165.561,79.28c5.69-6.527,5.549-16.325-0.477-22.257     c-6.214-6.118-16.312-5.798-22.556,0.714c-3.217,3.355-4.769,7.698-4.682,11.959c-4.205,0.034-8.444,1.732-11.661,5.087     c-6.244,6.512-6.268,16.751-0.055,22.868C132.157,103.584,141.825,103.445,148.099,97.493z"/><path class="st6" d="M231.23,238.68c0,0.01,0.01,0.02,0.01,0.02l-5.66-112.97l-26.14-25.06l-5.9,6.16l-17.46,18.21l-4.88,5.1     l17.45,16.72l13.48,46.51c0.01,0,0,0.01,0,0.01L231.23,238.68z"/></g><path class="st5" d="M109.83,358.86c-10.85-2.37-20.28-5.42-27.58-9.36c-45.97-24.76-50.95-62.65-25.13-94.11    c10.47-12.76,20.33-22.66,30.54-31.62l74.7-58.38c8.79-6.6,17.52-12.79,26.29-18.53c12.16-7.97,24.4-15.06,36.93-21.13    c18.68-9.05,38.02-15.82,58.77-19.86c118.35-23.02,210.22,86.36,210.22,160.96c0,51.79-49,79.77-119.31,92.03H109.83z"/><path class="st2" d="M469.844,402.167H62.148l16.889,47.246c2.133,5.967,7.787,9.95,14.124,9.95h345.67    c6.337,0,11.991-3.983,14.124-9.95L469.844,402.167z"/><path class="st1" d="M482.846,358.858H49.147c-11.959,0-21.654,9.695-21.654,21.654v0c0,11.959,9.695,21.654,21.654,21.654    h433.699c11.959,0,21.654-9.695,21.654-21.654v0C504.5,368.554,494.805,358.858,482.846,358.858z"/><g><path class="st3" d="M444.419,250.423c-3.852,0-7.129-2.951-7.464-6.859c-1.241-14.475-5.903-28.614-13.482-40.89     c-10.998-17.814-25.615-28.039-35.939-33.479c-3.665-1.931-5.07-6.467-3.139-10.131c1.931-3.665,6.465-5.072,10.131-3.139     c11.977,6.311,28.936,18.177,41.711,38.87c8.807,14.264,14.223,30.685,15.664,47.487c0.354,4.127-2.705,7.76-6.832,8.114     C444.851,250.414,444.634,250.423,444.419,250.423z"/></g><g><path class="st3" d="M422.474,311.039c-3.922,0-7.221-3.048-7.477-7.018c-0.267-4.134,2.868-7.701,7.002-7.967     c2.245-0.145,8.009-0.965,13.024-5.448c4.71-4.21,6.278-9.314,6.795-11.982c0.786-4.065,4.724-6.722,8.787-5.939     c4.067,0.787,6.727,4.721,5.939,8.788c-0.874,4.522-3.535,13.175-11.525,20.317c-8.196,7.325-17.337,8.929-22.056,9.233     C422.8,311.034,422.636,311.039,422.474,311.039z"/></g><g><path class="st4" d="M34.113,129.356l27.978,27.546l17.462-18.213l-27.978-27.546c5.69-6.527,5.549-16.325-0.477-22.257     c-6.214-6.118-16.312-5.798-22.556,0.714c-3.217,3.355-4.769,7.698-4.682,11.959c-4.205,0.034-8.444,1.732-11.661,5.087     c-6.244,6.512-6.268,16.751-0.055,22.868C18.17,135.448,27.839,135.308,34.113,129.356z"/><path class="st6" d="M199.318,190.596c-27.689-26.54-61.92-38.138-86.15-31.506l-27.71-26.56L57.209,162l27.71,26.56     c-5.599,24.49,7.438,58.198,35.128,84.738c35.835,34.348,82.63,43.678,104.52,20.84S235.153,224.943,199.318,190.596z"/></g></g><g><path d="M482.836,351.358h-50.679c12.93-5.052,24.12-10.917,33.469-17.583c24.176-17.238,36.435-39.762,36.435-66.945    c0-44.785-30.254-98.104-75.282-132.677c-3.286-2.524-7.993-1.903-10.517,1.381c-2.522,3.285-1.903,7.994,1.382,10.516    c41.521,31.879,69.417,80.417,69.417,120.779c0,42.959-37.85,71.394-112.484,84.528H110.665    c-10.369-2.312-18.741-5.154-24.868-8.461c-20.448-11.014-32.89-25.114-35.979-40.776c-2.707-13.726,1.819-28.24,13.091-41.974    c7.003-8.535,14.042-16.147,21.696-23.436c6.612,14.683,16.9,29.212,30.244,42.002c18.349,17.588,40.088,29.593,61.212,33.805    c5.511,1.099,10.824,1.642,15.894,1.642c15.482-0.001,28.659-5.067,38.018-14.831c10.304-10.75,14.736-25.814,12.818-43.565    c-0.445-4.118-4.142-7.106-8.263-6.651c-4.118,0.445-7.096,4.144-6.651,8.262c0.995,9.209,0.288,22.163-8.732,31.574    c-8.752,9.13-23.009,12.277-40.149,8.859c-18.358-3.66-37.453-14.288-53.767-29.924c-14.565-13.961-25.141-30.431-30.385-46.217    c-0.059-0.202-0.127-0.401-0.204-0.599c-3.562-10.992-4.522-21.632-2.417-30.836c0.588-2.571-0.218-5.262-2.122-7.086    l-22.296-21.37l13.713-14.307l3.44-3.588c0.004-0.004,0.007-0.009,0.011-0.013l0.704-0.734l22.297,21.371    c1.904,1.826,4.63,2.514,7.169,1.819c22.346-6.114,54.077,5.817,78.981,29.687c9.609,9.21,17.478,19.383,23.388,30.236    c1.981,3.638,6.537,4.982,10.174,3c3.638-1.981,4.98-6.536,3-10.173c-6.042-11.094-13.884-21.511-23.309-31.035    c-0.092-0.091-0.178-0.188-0.275-0.273c-0.86-0.865-1.713-1.733-2.599-2.583c-8.75-8.386-18.192-15.428-27.87-20.974    c5.514-3.958,10.849-7.622,16.123-11.074c12.476-8.177,24.281-14.933,36.089-20.653c18.956-9.183,37.579-15.479,56.932-19.248    c34.578-6.726,69.817-1.86,101.914,14.068c3.709,1.841,8.211,0.327,10.052-3.384c1.842-3.71,0.326-8.211-3.384-10.052    c-35.07-17.405-73.607-22.717-111.447-15.355c-19.023,3.704-37.352,9.688-55.869,18.238l-22.417-21.49    c-1.437-1.376-3.338-2.127-5.351-2.084c-1.989,0.043-3.88,0.874-5.257,2.311l-0.639,0.666l-18.283-18.002    c3.976-8.861,2.344-19.48-4.754-26.468c-4.373-4.306-10.169-6.606-16.363-6.54c-6.386,0.092-12.376,2.723-16.869,7.409    c-2.917,3.042-4.952,6.697-5.986,10.655c-3.886,1.173-7.437,3.346-10.355,6.39c-9.06,9.448-9.016,24.433,0.097,33.404    c7.123,7.013,17.665,8.395,26.344,4.149l18.348,18.065c-2.625,3-2.457,7.56,0.451,10.346l10.717,10.269    c-4.999,3.425-10.088,7.051-15.369,10.958c-15.96-6.406-31.923-8.618-45.93-5.913l-24.783-23.754    c-2.988-2.866-7.738-2.766-10.604,0.225l-0.646,0.673L61.103,110.01c3.978-8.862,2.345-19.48-4.754-26.468    c-4.374-4.307-10.211-6.626-16.363-6.541C33.6,77.094,27.61,79.725,23.118,84.41c-2.917,3.042-4.952,6.697-5.986,10.655    c-3.887,1.173-7.438,3.347-10.357,6.391c-9.058,9.448-9.013,24.433,0.099,33.403c7.125,7.015,17.669,8.392,26.343,4.149    l18.345,18.061c-1.229,1.405-1.899,3.216-1.859,5.09c0.042,1.988,0.872,3.879,2.309,5.255l24.783,23.754    c-1.417,9.48-0.579,19.75,2.268,30.224c-10.001,9.08-18.908,18.465-27.748,29.239c-14.209,17.313-19.814,36.122-16.211,54.392    c3.526,17.878,15.736,33.763,35.486,46.334H49.136c-16.076,0-29.154,13.079-29.154,29.155c0,16.076,13.078,29.154,29.154,29.154    h7.718l15.11,42.271c3.191,8.928,11.705,14.926,21.187,14.926h46.498c4.143,0,7.5-3.358,7.5-7.5s-3.357-7.5-7.5-7.5H93.151    c-3.16,0-5.998-1.999-7.062-4.975l-13.306-37.222h386.404l-13.306,37.222c-1.063,2.976-3.901,4.975-7.062,4.975H174.649    c-4.143,0-7.5,3.358-7.5,7.5s3.357,7.5,7.5,7.5h264.172c9.481,0,17.995-5.998,21.187-14.926l15.11-42.271h7.718    c16.076,0,29.154-13.079,29.154-29.154C511.99,364.436,498.912,351.358,482.836,351.358z M212.747,123.826    c-7.625,4.037-15.302,8.513-23.194,13.521l-7.762-7.438l17.865-18.633L212.747,123.826z M148.09,89.993    c-1.856,0-3.714,0.685-5.161,2.059c-3.371,3.197-8.442,3.312-11.546,0.255c-3.296-3.245-3.203-8.777,0.207-12.333    c1.698-1.772,3.939-2.758,6.308-2.777c2.006-0.017,3.921-0.835,5.318-2.273c1.397-1.438,2.161-3.376,2.119-5.381    c-0.051-2.465,0.872-4.813,2.597-6.613c1.694-1.767,3.916-2.758,6.258-2.792c2.12-0.01,4.132,0.762,5.624,2.23    c3.178,3.129,3.215,8.394,0.085,11.984c-2.606,2.989-2.435,7.49,0.392,10.272l22.703,22.354l-7.08,7.384l-22.562-22.213    C151.893,90.712,149.992,89.993,148.09,89.993z M34.102,121.856c-1.856,0-3.714,0.685-5.162,2.059    c-3.369,3.197-8.441,3.311-11.544,0.255c-3.296-3.244-3.203-8.777,0.206-12.333c1.698-1.772,3.939-2.759,6.31-2.778    c2.006-0.017,3.921-0.835,5.317-2.274c1.397-1.438,2.161-3.376,2.119-5.381c-0.051-2.465,0.872-4.813,2.598-6.613    c1.692-1.766,3.915-2.757,6.257-2.791c2.132-0.018,4.132,0.761,5.623,2.231c3.179,3.129,3.216,8.393,0.085,11.984    c-2.606,2.989-2.435,7.491,0.392,10.273l22.704,22.354l-7.08,7.384l-22.563-22.214C37.906,122.576,36.005,121.856,34.102,121.856z     M482.836,394.667h-13.002H62.138H49.136c-7.805,0-14.154-6.35-14.154-14.154c0-7.805,6.35-14.155,14.154-14.155h60.636    c0.019,0,0.037,0.003,0.055,0.003c0.012,0,0.022-0.003,0.034-0.003h265.314c0.022,0,0.043,0.003,0.065,0.003    c0.022,0,0.045-0.003,0.067-0.003h107.527c7.805,0,14.154,6.35,14.154,14.155C496.99,388.317,490.64,394.667,482.836,394.667z"/><path d="M436.226,194.794c-12.775-20.692-29.734-32.559-41.711-38.87c-3.665-1.933-8.201-0.525-10.131,3.139    c-1.932,3.665-0.526,8.2,3.139,10.131c10.324,5.44,24.941,15.665,35.939,33.479c7.579,12.275,12.241,26.415,13.482,40.89    c0.335,3.909,3.612,6.859,7.464,6.859c0.215,0,0.432-0.009,0.649-0.028c4.127-0.354,7.186-3.986,6.832-8.114    C450.449,225.478,445.033,209.058,436.226,194.794z"/><path d="M441.808,278.623c-0.517,2.668-2.085,7.772-6.795,11.982c-4.834,4.32-10.236,5.268-13.025,5.448    c-4.134,0.267-7.269,3.834-7.001,7.968c0.257,3.969,3.556,7.017,7.477,7.017c0.163,0,0.327-0.005,0.491-0.016    c4.721-0.305,13.861-1.91,22.055-9.233c7.99-7.142,10.651-15.795,11.525-20.317c0.787-4.067-1.872-8.001-5.939-8.788    C446.533,271.897,442.594,274.558,441.808,278.623z"/></g></g></svg>