<?xml version="1.0" ?><svg xmlns="http://www.w3.org/2000/svg" xmlns:xlink="http://www.w3.org/1999/xlink" version="1.1" viewBox="0 0 512 512" style="enable-background:new 0 0 512 512;" xml:space="preserve"><g id="_x32_8_x2C__Sandwich_x2C__Food_and_Restaurant_x2C__Salad_x2C__Sandwich_x2C__Meal"><g><path style="fill:#86ED7F;" d="M461.911,390.947c0,21.77-11.59,40.81-28.92,51.33l-126.49-118.29l27.4-20.28    c26.35-8.35,55.72,2.51,70,27.28C436.121,332.027,461.911,358.477,461.911,390.947z"/><path style="fill:#DD5113;" d="M292.451,170.987h-9.38l-29.84,42.35l21.27,66.65l59.4,36.09c0-20.741,0-79.371,0-103.64    C333.901,189.547,315.341,170.987,292.451,170.987z"/><path style="fill:#86ED7F;" d="M283.071,170.987c-3.06,18.22-14.31,33.64-29.84,42.35l-71.897-61.683l-34.723-74.107    c27.82-14.26,63-4.74,79.28,23.48C262.105,102.196,289.138,135.137,283.071,170.987z"/><path style="fill:#FAF0AF;" d="M432.991,442.277l5.01,6.38c0.58,0.74,1.22,1.44,1.86,2.14c17.43,19.02,4.05,50.19-22.2,50.19    h-269.92c-53.93,0-97.65-43.72-97.65-97.66V41.047c0-28.159,35.632-41,53.13-18.77    C301.819,275.222,402.297,403.186,432.991,442.277z"/><g><g><path d="M452.17,342.219c-11.433-11.789-26.364-19.074-42.512-20.843c-15.144-22.059-40.771-32.846-65.754-29.976v-78.961      c0-27.885-22.3-50.643-50-51.415c0-36.51-27.625-65.809-62.248-69.606c-18.17-26.574-52.051-37.216-81.944-26.123      c-13.606-17.329-26.584-33.857-38.625-49.189c-3.271-4.167-7.069-7.509-11.288-9.931C87.617-0.817,72.34-0.7,59.929,6.488      c-12.425,7.193-19.842,20.113-19.842,34.56v362.283c0,59.362,48.294,107.656,107.656,107.656h269.917      c34.779,0,52.881-41.26,29.698-66.798C477.788,418.38,480.558,371.49,452.17,342.219z M395.242,335.983      c1.729,2.997,4.882,4.887,8.34,4.999c27.102,0.874,48.332,22.822,48.332,49.965c0,14.64-6.228,28.133-16.977,37.535      c-17.061-21.674-50.45-64.178-91.033-115.856v-1.035C364.037,308.342,384.807,317.891,395.242,335.983z M292.453,180.987      c17.342,0,31.451,14.109,31.451,31.452v74.717c-17.944-22.853-36.904-47-56.197-71.573      c11.124-8.938,19.212-21.048,23.262-34.596H292.453z M217.232,106.024c1.729,2.996,4.882,4.886,8.34,4.998      c27.102,0.875,48.332,22.822,48.332,49.965c0,15.206-6.944,29.458-18.547,38.865c-31.255-39.81-63.001-80.246-92.396-117.684      C183.819,77.449,206.039,86.62,217.232,106.024z M417.661,490.987H147.744c-48.334,0-87.656-39.322-87.656-87.656V41.048      c0-16.245,17.494-24.566,29.754-17.527c1.98,1.137,3.835,2.797,5.514,4.936c351.875,448.006,334.028,425.725,337.13,429.101      C443.888,469.997,435.451,490.987,417.661,490.987z"/><path d="M242.487,269.501c-3.906-3.904-10.236-3.904-14.143,0l-115,115c-3.905,3.905-3.905,10.237,0,14.143      c3.906,3.904,10.235,3.906,14.143,0l115-115C246.392,279.738,246.392,273.406,242.487,269.501z"/><path d="M252.162,316.394c-3.906-3.904-10.236-3.904-14.143,0l-77.781,77.781c-3.905,3.905-3.905,10.237,0,14.143      c3.906,3.904,10.235,3.906,14.143,0l77.781-77.781C256.067,326.632,256.067,320.299,252.162,316.394z"/><path d="M253.929,357.052l-53.033,53.033c-3.905,3.905-3.905,10.237,0,14.143c3.906,3.904,10.235,3.906,14.143,0l53.033-53.033      c3.905-3.905,3.905-10.237,0-14.143C264.166,353.148,257.836,353.148,253.929,357.052z"/><path d="M117.812,351.75l77.781-77.781c3.905-3.905,3.905-10.237,0-14.143c-3.906-3.904-10.236-3.904-14.143,0l-77.781,77.781      c-3.905,3.905-3.905,10.237,0,14.143C107.576,355.654,113.905,355.655,117.812,351.75z"/><path d="M154.935,258.058c3.905-3.905,3.905-10.237,0-14.143c-3.906-3.904-10.236-3.904-14.143,0l-53.033,53.033      c-3.905,3.905-3.905,10.237,0,14.143c3.906,3.904,10.235,3.906,14.143,0L154.935,258.058z"/></g></g></g></g><g id="Layer_1"/></svg>